Coordinates
version=1
nRows=5
nColumns=46
inDegrees=yes

Units are S.I. units (second, meters, Newtons, ...)
Angles are in degrees.

endheader
time	pelvis_tilt	pelvis_list	pelvis_rotation	pelvis_tx	pelvis_ty	pelvis_tz	bb_angle	bb_tx	bb_ty	bb_tz	hip_flexion_r	hip_adduction_r	hip_rotation_r	knee_angle_r	knee_angle_r_beta	ankle_angle_r	subtalar_angle_r	mtp_angle_r	crank_angle_r	hip_flexion_l	hip_adduction_l	hip_rotation_l	knee_angle_l	knee_angle_l_beta	ankle_angle_l	subtalar_angle_l	mtp_angle_l	crank_angle_l	lumbar_extension	lumbar_bending	lumbar_rotation	arm_flex_r	arm_add_r	arm_rot_r	elbow_flex_r	pro_sup_r	wrist_flex_r	wrist_dev_r	arm_flex_l	arm_add_l	arm_rot_l	elbow_flex_l	pro_sup_l	wrist_flex_l	wrist_dev_l
      5.00000000	     -9.02865994	     -3.39217898	     -4.37389007	      0.11796804	      1.13780134	     -0.29211550	      0.00000000	      0.50000000	      0.00000000	      0.25000000	     81.81533443	      2.25426703	      3.18437155	     94.86667826	      1.65573589	      6.70738231	     -7.15967970	      0.00000000	      0.00000000	     44.85599775	    -11.93914978	     -2.22421635	     65.18263381	      1.13765158	    -10.94556089	     -5.29857975	      0.00000000	      0.00000000	    -67.86766348	      3.85785112	      5.78583008	     88.92333245	    -21.57011824	     45.38435410	     71.24806445	     45.78580678	      0.00000000	      0.00000000	     78.40195423	    -30.76909570	     36.24297235	     68.52644181	     50.14851364	      0.00000000	      0.00000000
      5.00500000	     -8.96798502	     -3.19763529	     -4.36952843	      0.11790923	      1.13613663	     -0.29172363	      0.00000000	      0.50000000	      0.00000000	      0.25000000	     80.03440424	      2.31772698	      3.27806755	     92.48073670	      1.61409335	      9.11010950	     -7.34245934	      0.00000000	      0.00000000	     46.10749033	    -11.61523107	     -1.65904858	     67.91242848	      1.18529548	    -11.33475512	     -6.26778915	      0.00000000	      0.00000000	    -67.75661861	      3.67674897	      5.49296715	     88.87631343	    -21.69852500	     45.59210997	     71.44012068	     45.73982342	      0.00000000	      0.00000000	     77.88234085	    -30.68194420	     35.63116391	     68.89508104	     50.17896165	      0.00000000	      0.00000000
      5.01000000	     -8.78968036	     -2.90702248	     -4.46236081	      0.11792195	      1.13469736	     -0.29107639	      0.00000000	      0.50000000	      0.00000000	      0.25000000	     78.06454410	      2.44373134	      3.39180949	     89.90766186	      1.56918472	     10.96019391	     -8.10544709	      0.00000000	      0.00000000	     47.12287108	    -11.34775423	     -1.37380528	     70.54191871	      1.23118874	    -11.45415415	     -7.05552439	      0.00000000	      0.00000000	    -67.75627133	      3.34448248	      5.06643975	     88.78596665	    -21.68599342	     45.68720575	     71.61767516	     45.73285549	      0.00000000	      0.00000000	     77.62666782	    -30.68747114	     35.28919422	     68.98483598	     50.17586422	      0.00000000	      0.00000000
      5.01500000	     -8.58677205	     -2.41510670	     -4.54939702	      0.11795315	      1.13297254	     -0.29076474	      0.00000000	      0.50000000	      0.00000000	      0.25000000	     76.09599562	      2.44236215	      3.70901542	     87.30917398	      1.52383255	     12.55888776	     -8.98759403	      0.00000000	      0.00000000	     48.04316983	    -10.83992849	     -1.18329670	     73.10297724	      1.27588765	    -11.38482866	     -7.55320791	      0.00000000	      0.00000000	    -67.70100631	      2.87838680	      4.50699129	     88.67551070	    -21.77395646	     45.72706352	     71.71101873	     45.73561494	      0.00000000	      0.00000000	     77.43754466	    -30.62179326	     35.12819601	     69.02829248	     50.17473225	      0.00000000	      0.00000000
      5.02000000	     -8.26227340	     -2.36601684	     -4.56113407	      0.11797533	      1.13142633	     -0.29029992	      0.00000000	      0.50000000	      0.00000000	      0.25000000	     73.89774512	      2.53890602	      3.62355636	     84.53811533	      1.47546846	     13.69376848	     -9.68006703	      0.00000000	      0.00000000	     48.90325102	    -10.74557391	     -0.75557461	     75.72326486	      1.32162029	    -11.01099764	     -8.06176131	      0.00000000	      0.00000000	    -67.85447606	      2.74614781	      4.23613717	     88.62091825	    -21.70363558	     45.80440306	     71.93252460	     45.74200662	      0.00000000	      0.00000000	     77.07453141	    -30.68311754	     34.60505702	     69.14278170	     50.15995478	      0.00000000	      0.00000000
